<svg width="365" height="114" viewBox="0 0 365 114" fill="none" xmlns="http://www.w3.org/2000/svg">
<rect width="365" height="114" fill="white"/>
<g clip-path="url(#clip0_30_11)">
<path d="M52.2866 84.8455C48.7323 81.6045 47.6947 74.7948 49.1755 69.8613C51.7432 72.9718 55.3009 73.9571 58.986 74.5133C64.6749 75.3716 70.262 75.0506 75.5468 72.4568C76.1513 72.1598 76.71 71.765 77.3706 71.3651C77.8665 72.8001 77.9956 74.2489 77.8224 75.7235C77.4012 79.3146 75.6096 82.0886 72.76 84.1914C71.6206 85.0326 70.4148 85.7844 69.238 86.5775C65.6225 89.0151 64.6444 91.8732 66.0029 96.0308C66.0352 96.132 66.0641 96.2333 66.1371 96.4805C64.2912 95.6565 62.9428 94.4567 61.9154 92.8791C60.8302 91.214 60.314 89.3721 60.2868 87.3791C60.2732 86.4093 60.2732 85.4308 60.1425 84.4747C59.8232 82.1435 58.7262 81.0999 56.6595 81.0398C54.5384 80.978 52.8606 82.286 52.4157 84.3459C52.3817 84.5038 52.3325 84.6601 52.2832 84.8437L52.2866 84.8455Z" fill="#17191E"/>
<path d="M32 69.0393C32 69.0393 42.5249 63.9249 53.0793 63.9249L61.0369 39.3588C61.3348 38.1708 62.2047 37.3634 63.1867 37.3634C64.1688 37.3634 65.0386 38.1708 65.3366 39.3588L73.2942 63.9249C85.7942 63.9249 94.3734 69.0393 94.3734 69.0393C94.3734 69.0393 76.496 20.4588 76.461 20.3614C75.9479 18.925 75.0817 18 73.9139 18H52.4613C51.2935 18 50.4623 18.925 49.9142 20.3614C49.8756 20.457 32 69.0393 32 69.0393Z" fill="#17191E"/>
<path d="M142.967 61.9656C142.967 66.2704 137.599 68.8414 130.167 68.8414C125.33 68.8414 123.619 67.6456 123.619 65.1344C123.619 62.5037 125.742 61.2481 130.58 61.2481C134.945 61.2481 138.661 61.3079 142.967 61.846V61.9656ZM143.026 56.6443C140.372 56.0464 136.361 55.6877 131.582 55.6877C117.661 55.6877 111.113 58.9761 111.113 66.6292C111.113 74.5812 115.596 77.6304 125.978 77.6304C134.768 77.6304 140.726 75.4182 142.908 69.9774H143.262C143.203 71.2927 143.144 72.6081 143.144 73.6245C143.144 76.4346 143.616 76.6738 145.917 76.6738H156.771C156.181 74.9997 155.827 70.2763 155.827 66.2106C155.827 61.846 156.004 58.5576 156.004 54.1332C156.004 45.1049 150.577 39.3652 133.588 39.3652C126.273 39.3652 118.133 40.6207 111.939 42.4742C112.529 44.9256 113.355 49.8881 113.768 53.1167C119.136 50.6056 126.745 49.5294 132.644 49.5294C140.785 49.5294 143.026 51.3828 143.026 55.1496V56.6443Z" fill="#17191E"/>
<path d="M172.808 64.4766C171.333 64.656 169.328 64.656 167.263 64.656C165.08 64.656 163.075 64.5962 161.718 64.4168C161.718 64.8952 161.659 65.4333 161.659 65.9116C161.659 73.3853 166.555 77.7499 183.78 77.7499C200.002 77.7499 205.252 73.4451 205.252 65.8518C205.252 58.6771 201.772 55.1495 186.375 54.3722C174.401 53.8341 173.339 52.5187 173.339 51.024C173.339 49.2901 174.873 48.3933 182.895 48.3933C191.213 48.3933 193.454 49.5293 193.454 51.9208V52.4589C194.634 52.3992 196.758 52.3394 198.94 52.3394C201.005 52.3394 203.246 52.3992 204.544 52.5187C204.544 51.9806 204.603 51.5023 204.603 51.0838C204.603 42.2947 197.288 39.4248 183.131 39.4248C167.204 39.4248 161.836 43.3112 161.836 50.9044C161.836 57.7204 166.142 61.9655 181.42 62.6232C192.687 62.9819 193.926 64.2375 193.926 65.9714C193.926 67.8248 192.097 68.6619 184.193 68.6619C175.109 68.6619 172.808 67.4063 172.808 64.8354V64.4766Z" fill="#17191E"/>
<path d="M224.722 32.9678C220.416 36.9737 212.688 40.9796 208.382 42.0558C208.441 44.268 208.441 48.3337 208.441 50.5459L212.393 50.6057C212.334 54.8507 212.275 59.9926 212.275 63.4006C212.275 71.3526 216.463 77.3316 229.5 77.3316C234.986 77.3316 238.643 76.7337 243.185 75.777C242.713 72.8474 242.183 68.3631 242.006 64.9551C239.292 65.852 235.871 66.3303 232.095 66.3303C226.845 66.3303 224.722 64.8954 224.722 60.7699C224.722 57.1825 224.722 53.8343 224.781 50.7253C231.506 50.785 238.23 50.9046 242.183 51.0242C242.124 47.9152 242.242 43.4309 242.419 40.4415C236.697 40.561 230.267 40.6208 224.958 40.6208C225.017 37.9901 225.076 35.4789 225.135 32.9678H224.722Z" fill="#17191E"/>
<path d="M259.954 48.7519C260.013 45.6428 260.072 43.0121 260.131 40.4412H248.274C248.451 45.5831 248.451 50.8445 248.451 58.5574C248.451 66.2702 248.392 71.5915 248.274 76.6736H261.841C261.605 73.0862 261.546 67.0475 261.546 61.9056C261.546 53.7742 264.85 51.4424 272.341 51.4424C275.822 51.4424 278.299 51.861 280.482 52.6382C280.541 49.589 281.131 43.6698 281.485 41.0391C279.243 40.3814 276.765 39.9629 273.757 39.9629C267.327 39.9031 262.608 42.5338 260.425 48.8117L259.954 48.7519Z" fill="#17191E"/>
<path d="M319.018 58.3179C319.018 64.835 314.299 67.8842 306.866 67.8842C299.492 67.8842 294.773 65.0143 294.773 58.3179C294.773 51.6215 299.551 49.1103 306.866 49.1103C314.24 49.1103 319.018 51.8009 319.018 58.3179ZM331.346 58.019C331.346 45.0447 321.2 39.2451 306.866 39.2451C292.473 39.2451 282.68 45.0447 282.68 58.019C282.68 70.9335 291.824 77.8691 306.807 77.8691C321.908 77.8691 331.346 70.9335 331.346 58.019Z" fill="#17191E"/>
</g>
<defs>
<clipPath id="clip0_30_11">
<rect width="300" height="79" fill="white" transform="translate(32 18)"/>
</clipPath>
</defs>
</svg>
