<svg width="262" height="104" viewBox="0 0 262 104" fill="none" xmlns="http://www.w3.org/2000/svg">
<g clip-path="url(#clip0_8_14)">
<path d="M73.8344 74.4377V64.5462H81.8595V94.8125H73.8344V92.9226C73.259 93.4735 72.6132 93.9226 71.8981 94.2683C70.7662 94.8156 69.4928 95.0881 68.0835 95.0881C66.0292 95.0881 64.2091 94.6035 62.6342 93.6324C61.0592 92.6612 59.8357 91.2937 58.9693 89.5399C58.1085 87.7973 57.6797 85.7948 57.6797 83.5381C57.6797 81.3074 58.1021 79.3372 58.9504 77.6333C59.8042 75.9187 61.0087 74.584 62.558 73.6394C64.1064 72.6953 65.8995 72.2244 67.9267 72.2244C69.3623 72.2244 70.6619 72.5035 71.8199 73.0639C72.5631 73.4236 73.235 73.8819 73.8344 74.4377ZM69.8088 88.5256C71.0174 88.5256 71.9692 88.0989 72.7048 87.2333C73.4558 86.3495 73.8344 85.1911 73.8344 83.735C73.8344 82.2532 73.4559 81.0892 72.7071 80.2197C71.9717 79.3658 71.0189 78.9444 69.8088 78.9444C68.5991 78.9444 67.6395 79.372 66.8906 80.2398C66.1281 81.1233 65.744 82.2804 65.744 83.735C65.744 85.1896 66.1281 86.3467 66.8906 87.2302C67.6395 88.098 68.5991 88.5256 69.8088 88.5256ZM97.8073 80.9656C97.7508 80.2424 97.4751 79.6995 96.9772 79.3033C96.3882 78.8346 95.5009 78.59 94.3023 78.59C93.4609 78.59 92.5042 78.7281 91.4337 79.0064C90.3575 79.2861 89.2728 79.6938 88.1796 80.2299L87.6775 80.4761L85.3548 74.7641L85.8126 74.5552C87.5671 73.7543 89.2519 73.1592 90.8672 72.7704C92.489 72.3801 94.1702 72.185 95.91 72.185C98.9509 72.185 101.343 72.8958 103.067 74.334C104.811 75.7886 105.698 77.8323 105.726 80.4275V94.8125H97.8182V93.2019C96.353 94.4866 94.3879 95.1275 91.9497 95.1275C89.5762 95.1275 87.6766 94.4729 86.2787 93.1542C84.876 91.831 84.1729 90.0837 84.1729 87.9481C84.1729 85.7728 84.9397 84.0458 86.466 82.8139C87.9666 81.6027 90.0849 80.993 92.8123 80.9656H97.8073ZM97.8182 87.0123V85.7562H94.1847C92.4853 85.7562 91.7667 86.295 91.7667 87.4362C91.7667 88.0207 91.9571 88.457 92.3462 88.7877C92.7533 89.1335 93.3331 89.3131 94.1063 89.3131C95.0536 89.3131 95.8693 89.0849 96.5661 88.6301C97.2233 88.2011 97.634 87.6666 97.8182 87.0123ZM113.319 71.1875C112.11 71.1875 111.093 70.7788 110.3 69.9671C109.509 69.1579 109.111 68.1327 109.111 66.9219C109.111 65.6843 109.509 64.6509 110.303 63.8535C111.096 63.0568 112.112 62.6562 113.319 62.6562C114.527 62.6562 115.542 63.0568 116.336 63.8535C117.13 64.6509 117.528 65.6843 117.528 66.9219C117.528 68.1327 117.13 69.1579 116.339 69.9671C115.546 70.7788 114.528 71.1875 113.319 71.1875ZM117.371 72.4606V94.8125H109.385V72.4606H117.371ZM129.709 95.1275C127.854 95.1275 126.077 94.8638 124.379 94.3362C122.673 93.806 121.153 93.0223 119.822 91.9855L119.486 91.7242L122.135 86.2614L122.636 86.6115C123.8 87.4244 125.019 88.0521 126.293 88.4955C127.56 88.9365 128.751 89.1556 129.866 89.1556C130.465 89.1556 130.923 89.0614 131.242 88.8856C131.485 88.752 131.578 88.6033 131.578 88.3812C131.578 88.0725 131.409 87.8384 130.989 87.6323C130.437 87.3612 129.543 87.0556 128.305 86.7187C126.795 86.2665 125.546 85.8194 124.556 85.376C123.515 84.9097 122.607 84.2106 121.838 83.2836C121.036 82.3171 120.639 81.0691 120.639 79.5612C120.639 77.2462 121.524 75.403 123.279 74.0816C124.996 72.788 127.198 72.1456 129.866 72.1456C131.456 72.1456 133.026 72.3621 134.574 72.7948C136.124 73.2278 137.586 73.8639 138.96 74.7026L139.377 74.9572L136.559 80.4287L136.093 80.1838C133.417 78.7759 131.244 78.0781 129.592 78.0781C129.079 78.0781 128.688 78.1684 128.412 78.3366C128.204 78.4634 128.115 78.627 128.115 78.8919C128.115 79.1434 128.276 79.3573 128.688 79.5642C129.226 79.834 130.112 80.1391 131.346 80.4749C132.881 80.9267 134.162 81.373 135.189 81.8153C136.272 82.2813 137.208 82.9878 137.992 83.9299C138.807 84.9097 139.211 86.1776 139.211 87.7119C139.211 90.0298 138.304 91.8744 136.508 93.1951C134.751 94.4868 132.48 95.1275 129.709 95.1275ZM149.299 93.7529L140.304 72.4606H148.634L153.299 85.2422L157.457 72.4606H165.542L165.264 73.1766L156.164 96.5727C155.318 98.6555 154.173 100.213 152.726 101.234C151.274 102.257 149.483 102.766 147.367 102.766C146.134 102.766 144.978 102.58 143.903 102.206C142.826 101.832 141.782 101.245 140.771 100.449L140.407 100.163L143.863 94.3951L144.332 94.7915C144.79 95.1788 145.216 95.452 145.606 95.6133C145.986 95.7707 146.389 95.8494 146.818 95.8494C147.769 95.8494 148.441 95.424 148.903 94.5178L149.299 93.7529Z" fill="#5A0EF8" />
<path d="M180.774 95.3239C178.185 95.3239 175.902 94.8204 173.93 93.8097C171.945 92.7926 170.406 91.3369 169.323 89.4502C168.243 87.5692 167.704 85.3853 167.704 82.9077V66.1602H175.925V82.9077C175.925 84.509 176.386 85.7679 177.306 86.7149C178.225 87.6614 179.383 88.1314 180.813 88.1314C182.214 88.1314 183.322 87.6712 184.174 86.7448C185.033 85.8114 185.466 84.5414 185.466 82.9077V66.1602H193.688V82.9077C193.688 85.3833 193.163 87.5653 192.111 89.4452C191.054 91.3332 189.541 92.7903 187.582 93.8083C185.635 94.8201 183.364 95.3239 180.774 95.3239ZM204.719 94.812H196.498V66.1602H204.719V94.812Z" fill="#2D3748" />
</g>
<g clip-path="url(#clip1_8_14)">
<mask id="mask0_8_14" style="mask-type:luminance" maskUnits="userSpaceOnUse" x="0" y="0" width="262" height="33">
<path d="M0 0H262V32.4H0V0Z" fill="white"/>
</mask>
<g mask="url(#mask0_8_14)">
<path fill-rule="evenodd" clip-rule="evenodd" d="M27 0C19.8 0 15.3 3.6 13.5 10.8C16.2 7.2 19.35 5.85 22.95 6.75C25.004 7.263 26.472 8.754 28.097 10.403C30.744 13.09 33.808 16.2 40.5 16.2C47.7 16.2 52.2 12.6 54 5.4C51.3 9 48.15 10.35 44.55 9.45C42.496 8.937 41.028 7.446 39.403 5.797C36.756 3.11 33.692 0 27 0ZM13.5 16.2C6.3 16.2 1.8 19.8 0 27C2.7 23.4 5.85 22.05 9.45 22.95C11.504 23.464 12.972 24.954 14.597 26.603C17.244 29.29 20.308 32.4 27 32.4C34.2 32.4 38.7 28.8 40.5 21.6C37.8 25.2 34.65 26.55 31.05 25.65C28.996 25.137 27.528 23.646 25.903 21.997C23.256 19.31 20.192 16.2 13.5 16.2Z" fill="#38BDF8"/>
<path fill-rule="evenodd" clip-rule="evenodd" d="M80.9956 13.652H76.2836V22.772C76.2836 25.204 77.8796 25.166 80.9956 25.014V28.7C74.6876 29.46 72.1796 27.712 72.1796 22.772V13.652H68.6836V9.69996H72.1796V4.59596L76.2836 3.37996V9.69996H80.9956V13.652ZM98.9576 9.69996H103.062V28.7H98.9576V25.964C97.5136 27.978 95.2716 29.194 92.3076 29.194C87.1396 29.194 82.8456 24.824 82.8456 19.2C82.8456 13.538 87.1396 9.20596 92.3076 9.20596C95.2716 9.20596 97.5136 10.422 98.9576 12.398V9.69996ZM92.9536 25.28C96.3736 25.28 98.9576 22.734 98.9576 19.2C98.9576 15.666 96.3736 13.12 92.9536 13.12C89.5336 13.12 86.9496 15.666 86.9496 19.2C86.9496 22.734 89.5336 25.28 92.9536 25.28ZM109.902 6.84996C108.458 6.84996 107.28 5.63396 107.28 4.22796C107.281 3.53297 107.558 2.86682 108.049 2.37539C108.54 1.88395 109.207 1.60728 109.902 1.60596C110.597 1.60728 111.263 1.88395 111.754 2.37539C112.246 2.86682 112.522 3.53297 112.524 4.22796C112.524 5.63396 111.346 6.84996 109.902 6.84996ZM107.85 28.7V9.69996H111.954V28.7H107.85ZM116.704 28.7V0.959961H120.808V28.7H116.704ZM147.446 9.69996H151.778L145.812 28.7H141.784L137.832 15.894L133.842 28.7H129.814L123.848 9.69996H128.18L131.866 22.81L135.856 9.69996H139.77L143.722 22.81L147.446 9.69996ZM156.87 6.84996C155.426 6.84996 154.248 5.63396 154.248 4.22796C154.249 3.53297 154.526 2.86682 155.017 2.37539C155.508 1.88395 156.175 1.60728 156.87 1.60596C157.565 1.60728 158.231 1.88395 158.722 2.37539C159.214 2.86682 159.49 3.53297 159.492 4.22796C159.492 5.63396 158.314 6.84996 156.87 6.84996ZM154.818 28.7V9.69996H158.922V28.7H154.818ZM173.666 9.20596C177.922 9.20596 180.962 12.094 180.962 17.034V28.7H176.858V17.452C176.858 14.564 175.186 13.044 172.602 13.044C169.904 13.044 167.776 14.64 167.776 18.516V28.7H163.672V9.69996H167.776V12.132C169.03 10.156 171.082 9.20596 173.666 9.20596ZM200.418 2.09996H204.522V28.7H200.418V25.964C198.974 27.978 196.732 29.194 193.768 29.194C188.6 29.194 184.306 24.824 184.306 19.2C184.306 13.538 188.6 9.20596 193.768 9.20596C196.732 9.20596 198.974 10.422 200.418 12.398V2.09996ZM194.414 25.28C197.834 25.28 200.418 22.734 200.418 19.2C200.418 15.666 197.834 13.12 194.414 13.12C190.994 13.12 188.41 15.666 188.41 19.2C188.41 22.734 190.994 25.28 194.414 25.28ZM218.278 29.194C212.54 29.194 208.246 24.824 208.246 19.2C208.246 13.538 212.54 9.20596 218.278 9.20596C222.002 9.20596 225.232 11.144 226.752 14.108L223.218 16.16C222.382 14.374 220.52 13.234 218.24 13.234C214.896 13.234 212.35 15.78 212.35 19.2C212.35 22.62 214.896 25.166 218.24 25.166C220.52 25.166 222.382 23.988 223.294 22.24L226.828 24.254C225.232 27.256 222.002 29.194 218.278 29.194ZM233.592 14.944C233.592 18.402 243.814 16.312 243.814 23.342C243.814 27.142 240.508 29.194 236.404 29.194C232.604 29.194 229.868 27.484 228.652 24.748L232.186 22.696C232.794 24.406 234.314 25.432 236.404 25.432C238.228 25.432 239.634 24.824 239.634 23.304C239.634 19.922 229.412 21.822 229.412 15.02C229.412 11.448 232.49 9.20596 236.366 9.20596C239.482 9.20596 242.066 10.65 243.396 13.158L239.938 15.096C239.254 13.614 237.924 12.93 236.366 12.93C234.884 12.93 233.592 13.576 233.592 14.944ZM251.11 14.944C251.11 18.402 261.332 16.312 261.332 23.342C261.332 27.142 258.026 29.194 253.922 29.194C250.122 29.194 247.386 27.484 246.17 24.748L249.704 22.696C250.312 24.406 251.832 25.432 253.922 25.432C255.746 25.432 257.152 24.824 257.152 23.304C257.152 19.922 246.93 21.822 246.93 15.02C246.93 11.448 250.008 9.20596 253.884 9.20596C257 9.20596 259.584 10.65 260.914 13.158L257.456 15.096C256.772 13.614 255.442 12.93 253.884 12.93C252.402 12.93 251.11 13.576 251.11 14.944Z" fill="#6F737F" />
</g>
</g>
<path d="M129.812 54V47L132.188 46.9997V54H129.812ZM124 48.1879V47H138V48.1879H124Z" fill="#5A0EF8"/>
<path d="M129.812 46.9998V40H132.188V47L129.812 46.9998ZM124 47V45.8121H138V47H124Z" fill="#6F737F" />
<defs>
<clipPath id="clip0_8_14">
<rect width="149" height="42" fill="white" transform="translate(57 62)"/>
</clipPath>
<clipPath id="clip1_8_14">
<rect width="262" height="33" fill="white"/>
</clipPath>
</defs>
</svg>
