<svg width="262" height="103" viewBox="0 0 262 103" fill="none" xmlns="http://www.w3.org/2000/svg">
<g clip-path="url(#clip0_12_22)">
<mask id="mask0_12_22" style="mask-type:luminance" maskUnits="userSpaceOnUse" x="0" y="0" width="262" height="33">
<path d="M0 0H262V32.4H0V0Z" fill="white"/>
</mask>
<g mask="url(#mask0_12_22)">
<path fill-rule="evenodd" clip-rule="evenodd" d="M27 0C19.8 0 15.3 3.6 13.5 10.8C16.2 7.2 19.35 5.85 22.95 6.75C25.004 7.263 26.472 8.754 28.097 10.403C30.744 13.09 33.808 16.2 40.5 16.2C47.7 16.2 52.2 12.6 54 5.4C51.3 9 48.15 10.35 44.55 9.45C42.496 8.937 41.028 7.446 39.403 5.797C36.756 3.11 33.692 0 27 0ZM13.5 16.2C6.3 16.2 1.8 19.8 0 27C2.7 23.4 5.85 22.05 9.45 22.95C11.504 23.464 12.972 24.954 14.597 26.603C17.244 29.29 20.308 32.4 27 32.4C34.2 32.4 38.7 28.8 40.5 21.6C37.8 25.2 34.65 26.55 31.05 25.65C28.996 25.137 27.528 23.646 25.903 21.997C23.256 19.31 20.192 16.2 13.5 16.2Z" fill="#38BDF8"/>
<path fill-rule="evenodd" clip-rule="evenodd" d="M80.9956 13.652H76.2836V22.772C76.2836 25.204 77.8796 25.166 80.9956 25.014V28.7C74.6876 29.46 72.1796 27.712 72.1796 22.772V13.652H68.6836V9.69996H72.1796V4.59596L76.2836 3.37996V9.69996H80.9956V13.652ZM98.9576 9.69996H103.062V28.7H98.9576V25.964C97.5136 27.978 95.2716 29.194 92.3076 29.194C87.1396 29.194 82.8456 24.824 82.8456 19.2C82.8456 13.538 87.1396 9.20596 92.3076 9.20596C95.2716 9.20596 97.5136 10.422 98.9576 12.398V9.69996ZM92.9536 25.28C96.3736 25.28 98.9576 22.734 98.9576 19.2C98.9576 15.666 96.3736 13.12 92.9536 13.12C89.5336 13.12 86.9496 15.666 86.9496 19.2C86.9496 22.734 89.5336 25.28 92.9536 25.28ZM109.902 6.84996C108.458 6.84996 107.28 5.63396 107.28 4.22796C107.281 3.53297 107.558 2.86682 108.049 2.37539C108.54 1.88395 109.207 1.60728 109.902 1.60596C110.597 1.60728 111.263 1.88395 111.754 2.37539C112.246 2.86682 112.522 3.53297 112.524 4.22796C112.524 5.63396 111.346 6.84996 109.902 6.84996ZM107.85 28.7V9.69996H111.954V28.7H107.85ZM116.704 28.7V0.959961H120.808V28.7H116.704ZM147.446 9.69996H151.778L145.812 28.7H141.784L137.832 15.894L133.842 28.7H129.814L123.848 9.69996H128.18L131.866 22.81L135.856 9.69996H139.77L143.722 22.81L147.446 9.69996ZM156.87 6.84996C155.426 6.84996 154.248 5.63396 154.248 4.22796C154.249 3.53297 154.526 2.86682 155.017 2.37539C155.508 1.88395 156.175 1.60728 156.87 1.60596C157.565 1.60728 158.231 1.88395 158.722 2.37539C159.214 2.86682 159.49 3.53297 159.492 4.22796C159.492 5.63396 158.314 6.84996 156.87 6.84996ZM154.818 28.7V9.69996H158.922V28.7H154.818ZM173.666 9.20596C177.922 9.20596 180.962 12.094 180.962 17.034V28.7H176.858V17.452C176.858 14.564 175.186 13.044 172.602 13.044C169.904 13.044 167.776 14.64 167.776 18.516V28.7H163.672V9.69996H167.776V12.132C169.03 10.156 171.082 9.20596 173.666 9.20596ZM200.418 2.09996H204.522V28.7H200.418V25.964C198.974 27.978 196.732 29.194 193.768 29.194C188.6 29.194 184.306 24.824 184.306 19.2C184.306 13.538 188.6 9.20596 193.768 9.20596C196.732 9.20596 198.974 10.422 200.418 12.398V2.09996ZM194.414 25.28C197.834 25.28 200.418 22.734 200.418 19.2C200.418 15.666 197.834 13.12 194.414 13.12C190.994 13.12 188.41 15.666 188.41 19.2C188.41 22.734 190.994 25.28 194.414 25.28ZM218.278 29.194C212.54 29.194 208.246 24.824 208.246 19.2C208.246 13.538 212.54 9.20596 218.278 9.20596C222.002 9.20596 225.232 11.144 226.752 14.108L223.218 16.16C222.382 14.374 220.52 13.234 218.24 13.234C214.896 13.234 212.35 15.78 212.35 19.2C212.35 22.62 214.896 25.166 218.24 25.166C220.52 25.166 222.382 23.988 223.294 22.24L226.828 24.254C225.232 27.256 222.002 29.194 218.278 29.194ZM233.592 14.944C233.592 18.402 243.814 16.312 243.814 23.342C243.814 27.142 240.508 29.194 236.404 29.194C232.604 29.194 229.868 27.484 228.652 24.748L232.186 22.696C232.794 24.406 234.314 25.432 236.404 25.432C238.228 25.432 239.634 24.824 239.634 23.304C239.634 19.922 229.412 21.822 229.412 15.02C229.412 11.448 232.49 9.20596 236.366 9.20596C239.482 9.20596 242.066 10.65 243.396 13.158L239.938 15.096C239.254 13.614 237.924 12.93 236.366 12.93C234.884 12.93 233.592 13.576 233.592 14.944ZM251.11 14.944C251.11 18.402 261.332 16.312 261.332 23.342C261.332 27.142 258.026 29.194 253.922 29.194C250.122 29.194 247.386 27.484 246.17 24.748L249.704 22.696C250.312 24.406 251.832 25.432 253.922 25.432C255.746 25.432 257.152 24.824 257.152 23.304C257.152 19.922 246.93 21.822 246.93 15.02C246.93 11.448 250.008 9.20596 253.884 9.20596C257 9.20596 259.584 10.65 260.914 13.158L257.456 15.096C256.772 13.614 255.442 12.93 253.884 12.93C252.402 12.93 251.11 13.576 251.11 14.944Z" fill="#2D3748"/>
</g>
</g>
<path d="M129.812 54V47L132.188 46.9997V54H129.812ZM124 48.1879V47H138V48.1879H124Z" fill="#5A0EF8"/>
<path d="M129.812 46.9998V40H132.188V47L129.812 46.9998ZM124 47V45.8121H138V47H124Z" fill="#2D3748"/>
<path d="M84.3297 61H178.67C180.509 61 182 62.4907 182 64.3297V98.7363C182 100.575 180.509 102.066 178.67 102.066H84.3297C82.4907 102.066 81 100.575 81 98.7363V64.3297C81 62.4907 82.4907 61 84.3297 61Z" fill="#FCB32C"/>
<path d="M134.83 68.4629L134.83 85.3939L141.049 79.176L144.188 82.3154L132.692 93.8102L121.052 82.1695L124.191 79.0303L130.39 85.2296L130.391 68.4629H134.83Z" fill="black"/>
<path d="M94.837 92.9491V79.8368L102.865 87.8655L110.954 79.7771V92.8166H115.394V69.0596L102.865 81.587L90.3975 69.1182V92.9491H94.837Z" fill="black"/>
<path d="M169.761 67.7549L172.9 70.8942L163.497 80.2969L172.611 89.4111L169.471 92.5504L160.357 83.4364L151.243 92.5504L148.104 89.4111L157.217 80.2969L147.814 70.8942L150.954 67.7549L160.357 77.1574L169.761 67.7549Z" fill="black"/>
<defs>
<clipPath id="clip0_12_22">
<rect width="262" height="33" fill="white"/>
</clipPath>
</defs>
</svg>
